<?xml version="1.0" ?><svg id="Layer_5" style="enable-background:new 0 0 62 62;" version="1.1" viewBox="0 0 62 62" xml:space="preserve" xmlns="http://www.w3.org/2000/svg" xmlns:xlink="http://www.w3.org/1999/xlink"><g><g><g><rect height="32" style="fill:#E6E9ED;" width="60" x="1" y="1"/></g><g><path d="M33,51h-1c-1.66,0-3-1.34-3-3c0-0.83,0.34-1.58,0.88-2.12C30.42,45.34,31.17,45,32,45h-8     c-1.1,0-2,0.9-2,2v4v10h14V51H33z" style="fill:#FF826E;"/></g><g><path d="M34,45c1.1,0,2,0.9,2,2v4h-3h-1c-1.66,0-3-1.34-3-3c0-0.83,0.34-1.58,0.88-2.12     C30.42,45.34,31.17,45,32,45h1H34z" style="fill:#FC6E51;"/></g><g><path d="M30,33v-0.82c0-0.88,0.36-1.68,0.93-2.25S32.3,29,33.18,29c0.48,0,0.89,0.34,0.98,0.8L34.8,33     l1.06,5.28c0.09,0.48,0.14,0.97,0.14,1.46c0,1.47-0.44,2.91-1.25,4.14L34,45h-1h-1h-8l-1.52-6.83C22.16,36.73,22,35.25,22,33.78     c0-0.26,0-0.52,0.01-0.78H30z" style="fill:#F0D0B4;"/></g><g><path d="M6,13c1.12,0,2.24-0.11,3.33-0.34v0.01L1,21v-7l4-4v2C5,12.55,5.45,13,6,13z" style="fill:#FCD770;"/></g><g><path d="M21,1l-5,5c-0.85,0-1.62,0.36-2.17,0.93L13.57,6.8c-1.26-0.63-2.59-1.1-3.96-1.4V5.39L14,1H21z" style="fill:#FCD770;"/></g><g><path d="M27,6v6c0,0.55-0.45,1-1,1c-2.63,0-5.22-0.62-7.57-1.8l-0.26-0.13C18.68,10.54,19,9.81,19,9     s-0.32-1.54-0.83-2.07l0.26-0.13C20.78,5.62,23.37,5,26,5C26.55,5,27,5.45,27,6z" style="fill:#FF826E;"/></g><g><path d="M6,13c-0.55,0-1-0.45-1-1v-2V6c0-0.55,0.45-1,1-1c1.22,0,2.43,0.13,3.61,0.4     c1.37,0.3,2.7,0.77,3.96,1.4l0.26,0.13C13.32,7.46,13,8.19,13,9s0.32,1.54,0.83,2.07l-0.26,0.13c-1.35,0.68-2.77,1.17-4.24,1.46     C8.24,12.89,7.12,13,6,13z" style="fill:#FF826E;"/></g><g><path d="M18.17,6.93C18.68,7.46,19,8.19,19,9s-0.32,1.54-0.83,2.07C17.62,11.64,16.85,12,16,12     s-1.62-0.36-2.17-0.93C13.32,10.54,13,9.81,13,9s0.32-1.54,0.83-2.07C14.38,6.36,15.15,6,16,6S17.62,6.36,18.17,6.93z" style="fill:#FC6E51;"/></g><g><circle cx="45" cy="17" r="12" style="fill:#FCD770;"/></g></g><g><path d="M62,0H0v34h21.006c0.015,1.472,0.18,2.946,0.5,4.386l1.303,5.864C21.746,44.712,21,45.769,21,47v15h16V47    c0-1.079-0.577-2.018-1.434-2.547l0.012-0.018C36.509,43.04,37,41.416,37,39.739c0-0.555-0.055-1.112-0.164-1.66L36.02,34H62V0z     M2,14.414l2.038-2.038C4.215,13.299,5.026,14,6,14c0.201,0,0.403-0.011,0.604-0.018L2,18.586V14.414z M6,12V6    c2.185,0,4.359,0.486,6.358,1.364C12.133,7.865,12,8.416,12,9c0,0.585,0.133,1.136,0.359,1.637C10.359,11.515,8.185,12,6,12z     M14,9c0-1.103,0.897-2,2-2s2,0.897,2,2s-0.897,2-2,2S14,10.103,14,9z M19.641,7.363C21.641,6.486,23.815,6,26,6v6    c-2.185,0-4.36-0.485-6.359-1.363C19.867,10.136,20,9.585,20,9C20,8.416,19.867,7.864,19.641,7.363z M15.539,5.047    c-0.686,0.08-1.319,0.321-1.855,0.704c-0.7-0.334-1.421-0.622-2.159-0.862L14.414,2h4.172L15.539,5.047z M11.586,2l-2.31,2.31    C8.196,4.108,7.098,4,6,4C4.897,4,4,4.897,4,6v3.586l-2,2V2H11.586z M29,34v1.764c0,0.998-0.555,1.896-1.447,2.342l0.895,1.789    C30.021,39.106,31,37.523,31,35.764V32.18c0-1.202,0.979-2.18,2.181-2.18l1.694,8.471C34.958,38.889,35,39.315,35,39.739    c0,1.28-0.376,2.521-1.086,3.587L33.465,44H33h-1h-7.197l-1.344-6.048c-0.289-1.297-0.438-2.625-0.453-3.952H29z M35,50h-2h-1    c-1.103,0-2-0.897-2-2s0.897-2,2-2h1h1c0.552,0,1,0.448,1,1V50z M24,46h4.556C28.212,46.591,28,47.268,28,48s0.212,1.409,0.556,2    H23v-3C23,46.448,23.448,46,24,46z M23,60v-8h9h1h2v8H23z M60,32H35.62l-0.479-2.394C34.954,28.676,34.13,28,33.181,28    c-2.244,0-4.066,1.78-4.162,4H2V21.414l7.841-7.841c1.326-0.293,2.618-0.737,3.844-1.322C14.34,12.718,15.136,13,16,13    s1.66-0.282,2.315-0.75C20.704,13.392,23.352,14,26,14c1.103,0,2-0.897,2-2V6c0-1.103-0.897-2-2-2    c-2.649,0-5.296,0.609-7.685,1.75c-0.129-0.092-0.267-0.167-0.407-0.243L21.414,2H60V32z"/><path d="M46,22h-2c-1.103,0-2-0.897-2-2h-2c0,2.206,1.794,4,4,4v2h2v-2c2.206,0,4-1.794,4-4s-1.794-4-4-4h-2c-1.103,0-2-0.897-2-2    s0.897-2,2-2h2c1.103,0,2,0.897,2,2h2c0-2.206-1.794-4-4-4V8h-2v2c-2.206,0-4,1.794-4,4s1.794,4,4,4h2c1.103,0,2,0.897,2,2    S47.103,22,46,22z"/><path d="M45,30c7.168,0,13-5.832,13-13S52.168,4,45,4S32,9.832,32,17S37.832,30,45,30z M45,6c6.065,0,11,4.935,11,11    s-4.935,11-11,11s-11-4.935-11-11S38.935,6,45,6z"/><rect height="2" width="14" x="6" y="20"/><rect height="2" width="2" x="18" y="24"/><rect height="2" width="10" x="6" y="24"/><rect height="2" width="14" x="6" y="28"/></g></g></svg>